<svg width="1600" height="1200" viewBox="0 0 1600 1200" fill="none" xmlns="http://www.w3.org/2000/svg">
  <defs>
    <linearGradient id="bg" x1="188" y1="120" x2="1412" y2="1070" gradientUnits="userSpaceOnUse">
      <stop stop-color="#F7FEFF"/>
      <stop offset="0.55" stop-color="#E9F8FB"/>
      <stop offset="1" stop-color="#D6EFED"/>
    </linearGradient>
    <linearGradient id="wall" x1="800" y1="160" x2="800" y2="690" gradientUnits="userSpaceOnUse">
      <stop stop-color="#FFFFFF"/>
      <stop offset="1" stop-color="#EDF7FA"/>
    </linearGradient>
    <linearGradient id="desk" x1="640" y1="580" x2="992" y2="886" gradientUnits="userSpaceOnUse">
      <stop stop-color="#FFFFFF"/>
      <stop offset="1" stop-color="#DDEDF2"/>
    </linearGradient>
    <linearGradient id="screen" x1="950" y1="320" x2="1230" y2="566" gradientUnits="userSpaceOnUse">
      <stop stop-color="#173C56"/>
      <stop offset="1" stop-color="#0E1D31"/>
    </linearGradient>
    <filter id="shadow" x="0" y="0" width="1600" height="1200" filterUnits="userSpaceOnUse" color-interpolation-filters="sRGB">
      <feDropShadow dx="0" dy="24" stdDeviation="24" flood-color="#2A6074" flood-opacity="0.18"/>
    </filter>
  </defs>

  <rect width="1600" height="1200" rx="56" fill="url(#bg)"/>
  <rect x="100" y="100" width="1400" height="1000" rx="42" fill="#F8FEFF"/>
  <path d="M146 252C146 197.877 189.877 154 244 154H1356C1410.12 154 1454 197.877 1454 252V690H146V252Z" fill="url(#wall)"/>
  <path d="M146 690H1454V920C1454 974.123 1410.12 1018 1356 1018H244C189.877 1018 146 974.123 146 920V690Z" fill="#D4ECF1"/>

  <rect x="980" y="236" width="320" height="192" rx="28" fill="#E7F6FA"/>
  <rect x="1004" y="260" width="272" height="144" rx="20" fill="url(#screen)"/>
  <circle cx="1094" cy="332" r="38" fill="#9BE6EB" fill-opacity="0.22"/>
  <path d="M1046 372C1072 324 1124 314 1152 334C1184 356 1194 410 1158 442" stroke="#91E5E5" stroke-width="12" stroke-linecap="round"/>
  <path d="M1114 302C1134 280 1174 280 1194 300" stroke="#C7FBF8" stroke-width="12" stroke-linecap="round"/>

  <g filter="url(#shadow)">
    <rect x="552" y="654" width="520" height="132" rx="58" fill="url(#desk)"/>
    <rect x="612" y="592" width="408" height="96" rx="38" fill="#F7FEFF"/>
  </g>
  <rect x="786" y="786" width="52" height="134" rx="26" fill="#B5D7DF"/>
  <ellipse cx="812" cy="956" rx="188" ry="32" fill="#7BA8B4" fill-opacity="0.18"/>

  <g filter="url(#shadow)">
    <rect x="362" y="670" width="182" height="196" rx="62" fill="#FFFFFF"/>
    <rect x="398" y="622" width="110" height="98" rx="34" fill="#F0FAFC"/>
    <rect x="392" y="832" width="122" height="34" rx="17" fill="#D8EBF0"/>
  </g>

  <g filter="url(#shadow)">
    <rect x="1090" y="672" width="182" height="196" rx="62" fill="#FFFFFF"/>
    <rect x="1126" y="622" width="110" height="98" rx="34" fill="#F0FAFC"/>
    <rect x="1120" y="832" width="122" height="34" rx="17" fill="#D8EBF0"/>
  </g>

  <g filter="url(#shadow)">
    <rect x="658" y="502" width="138" height="78" rx="24" fill="#FFFFFF"/>
    <rect x="688" y="522" width="78" height="38" rx="10" fill="#D8F3F6"/>
  </g>

  <g filter="url(#shadow)">
    <rect x="1262" y="588" width="92" height="216" rx="28" fill="#F1FBFC"/>
    <rect x="1288" y="538" width="40" height="74" rx="20" fill="#7AD4C2"/>
    <path d="M1248 718C1276 648 1370 648 1398 718V790H1248V718Z" fill="#C4EADF"/>
  </g>

  <path d="M148 850C398 804 698 806 932 864C1138 914 1272 920 1452 860V1084H148V850Z" fill="#C2E0E6" fill-opacity="0.46"/>
</svg>
